<svg width="287" height="123" viewBox="0 0 287 123" fill="none" xmlns="http://www.w3.org/2000/svg">
<path d="M82.5 0.8125C83.0833 0.8125 83.4375 1.10417 83.5625 1.6875C83.7292 2.27083 83.8125 3.02083 83.8125 3.9375C83.8125 4.4375 83.7708 5.4375 83.6875 6.9375C83.6042 8.4375 83.5625 10.2917 83.5625 12.5C83.5625 16.375 83.7083 19.75 84 22.625C84.3333 25.4583 84.7083 27.9375 85.125 30.0625C85.5417 32.1458 85.9792 33.9167 86.4375 35.375C86.8958 36.8333 87.2917 38.0833 87.625 39.125C87.875 39.9583 88.1875 40.9792 88.5625 42.1875C88.9792 43.3542 89.1875 44.3333 89.1875 45.125C89.1875 45.7917 88.9167 46.125 88.375 46.125C87.9167 46.0833 87.375 45.7917 86.75 45.25C86.125 44.6667 85.4583 43.9792 84.75 43.1875C84.0833 42.3958 83.4167 41.5625 82.75 40.6875C82.125 39.8125 81.5833 39.0417 81.125 38.375C79.25 35.875 77.3125 33.6458 75.3125 31.6875C73.3125 29.7292 71.0833 28.0625 68.625 26.6875C66.2083 25.3125 63.5 24.2708 60.5 23.5625C57.5417 22.8542 54.1667 22.5 50.375 22.5C46.0417 22.5 41.9792 23.3542 38.1875 25.0625C34.3958 26.7292 31.0833 29.2917 28.25 32.75C25.4583 36.2083 23.2292 40.5625 21.5625 45.8125C19.9375 51.0208 19.125 57.1458 19.125 64.1875C19.125 70.6875 19.6875 76.4792 20.8125 81.5625C21.9792 86.6042 23.5208 91.0208 25.4375 94.8125C27.3542 98.5625 29.5625 101.75 32.0625 104.375C34.6042 106.958 37.25 109.062 40 110.688C42.7917 112.312 45.6042 113.479 48.4375 114.188C51.2708 114.896 53.9583 115.25 56.5 115.25C60.4167 115.25 63.8958 114.771 66.9375 113.812C69.9792 112.854 72.6667 111.562 75 109.938C77.3333 108.354 79.3333 106.521 81 104.438C82.6667 102.354 84.0625 100.188 85.1875 97.9375C86.3125 95.6458 87.2083 93.375 87.875 91.125C88.5417 88.8333 89.0208 86.6875 89.3125 84.6875C89.4792 83.4375 89.6042 82.1875 89.6875 80.9375C89.8125 79.6458 89.9167 78.4792 90 77.4375C90.125 76.3958 90.2708 75.5625 90.4375 74.9375C90.6458 74.2708 90.9375 73.9375 91.3125 73.9375C92.5208 73.9375 93.125 76.0625 93.125 80.3125C93.125 81.3958 93.0417 82.8125 92.875 84.5625C92.75 86.3125 92.4375 88.2708 91.9375 90.4375C91.4792 92.6042 90.8125 94.8958 89.9375 97.3125C89.0625 99.6875 87.8958 102.062 86.4375 104.438C85.0208 106.771 83.2708 109 81.1875 111.125C79.1458 113.25 76.6875 115.125 73.8125 116.75C70.9375 118.375 67.6042 119.667 63.8125 120.625C60.0625 121.583 55.7917 122.062 51 122.062C46.9583 122.062 42.875 121.646 38.75 120.812C34.6667 119.979 30.7292 118.688 26.9375 116.938C23.1875 115.229 19.6667 113.021 16.375 110.312C13.125 107.646 10.2917 104.458 7.875 100.75C5.45833 97 3.54167 92.7292 2.125 87.9375C0.75 83.1042 0.0625 77.7083 0.0625 71.75C0.0625 64.625 0.8125 58.375 2.3125 53C3.8125 47.625 5.83333 42.9792 8.375 39.0625C10.9167 35.1458 13.8333 31.9167 17.125 29.375C20.4583 26.7917 23.9375 24.7292 27.5625 23.1875C31.2292 21.6458 34.9167 20.5625 38.625 19.9375C42.375 19.3125 45.9167 19 49.25 19C51.75 19 54.0208 19.1042 56.0625 19.3125C58.1458 19.5208 60.0417 19.75 61.75 20C63.5 20.2083 65.0833 20.4167 66.5 20.625C67.9583 20.8333 69.2917 20.9375 70.5 20.9375C72.625 20.9375 74.3958 20.5 75.8125 19.625C77.2292 18.7083 78.2708 16.9792 78.9375 14.4375C79.3542 12.6875 79.6458 11 79.8125 9.375C80.0208 7.75 80.2083 6.3125 80.375 5.0625C80.5833 3.77083 80.8333 2.75 81.125 2C81.4167 1.20833 81.875 0.8125 82.5 0.8125ZM140.125 11.4375C147.5 11.4375 154.208 12.6042 160.25 14.9375C166.292 17.2708 171.458 20.5417 175.75 24.75C180.083 28.9167 183.417 33.8958 185.75 39.6875C188.125 45.4375 189.312 51.7708 189.312 58.6875C189.312 62.6042 188.896 66.5 188.062 70.375C187.229 74.25 185.979 77.9375 184.312 81.4375C182.646 84.9375 180.521 88.1875 177.938 91.1875C175.396 94.1875 172.396 96.7917 168.938 99C165.521 101.208 161.625 102.938 157.25 104.188C152.917 105.438 148.104 106.062 142.812 106.062C134.938 106.062 128.021 104.875 122.062 102.5C116.104 100.083 111.125 96.75 107.125 92.5C103.125 88.2083 100.104 83.125 98.0625 77.25C96.0625 71.3333 95.0625 64.8958 95.0625 57.9375C95.0625 51.1458 96.1667 44.9167 98.375 39.25C100.583 33.5417 103.667 28.625 107.625 24.5C111.625 20.375 116.375 17.1667 121.875 14.875C127.417 12.5833 133.5 11.4375 140.125 11.4375ZM137.562 14.6875C133.479 14.6875 129.792 15.6042 126.5 17.4375C123.25 19.2708 120.458 21.8958 118.125 25.3125C115.833 28.6875 114.062 32.7917 112.812 37.625C111.562 42.4167 110.938 47.8125 110.938 53.8125C110.938 57.2708 111.167 60.875 111.625 64.625C112.125 68.375 112.896 72.0625 113.938 75.6875C114.979 79.3125 116.354 82.75 118.062 86C119.771 89.25 121.854 92.1042 124.312 94.5625C126.771 97.0208 129.625 98.9792 132.875 100.438C136.167 101.896 139.917 102.625 144.125 102.625C149.125 102.625 153.333 101.625 156.75 99.625C160.167 97.5833 162.917 94.9167 165 91.625C167.125 88.3333 168.646 84.6042 169.562 80.4375C170.521 76.2292 171 71.9583 171 67.625C171 64 170.792 60.1667 170.375 56.125C170 52.0833 169.312 48.1042 168.312 44.1875C167.354 40.2708 166.042 36.5417 164.375 33C162.75 29.4167 160.688 26.2708 158.188 23.5625C155.729 20.8542 152.792 18.7083 149.375 17.125C146 15.5 142.062 14.6875 137.562 14.6875ZM243.062 8.125C244.146 8.125 244.688 8.5625 244.688 9.4375C244.688 10.0625 244.396 10.625 243.812 11.125C243.271 11.625 242.292 12.2083 240.875 12.875C240.125 13.2083 239.292 13.6042 238.375 14.0625C237.5 14.5208 236.583 15.0625 235.625 15.6875C234.708 16.2708 233.792 16.9792 232.875 17.8125C231.958 18.6042 231.083 19.5208 230.25 20.5625C229.167 21.8958 228.229 23.6042 227.438 25.6875C226.646 27.7708 225.958 30.1458 225.375 32.8125C224.833 35.4375 224.417 38.3125 224.125 41.4375C223.875 44.5625 223.75 47.8333 223.75 51.25C223.75 55 223.875 58.7292 224.125 62.4375C224.375 66.1042 224.792 69.6042 225.375 72.9375C226 76.2708 226.812 79.3542 227.812 82.1875C228.812 85.0208 230.042 87.4792 231.5 89.5625C233 91.6458 234.771 93.2708 236.812 94.4375C238.854 95.6042 241.229 96.1875 243.938 96.1875C247.396 96.1875 250.354 95.2708 252.812 93.4375C255.312 91.6042 257.354 89.25 258.938 86.375C260.562 83.5 261.75 80.3125 262.5 76.8125C263.292 73.3125 263.688 69.875 263.688 66.5C263.688 65.625 263.667 64.4583 263.625 63C263.625 61.5 263.583 59.8542 263.5 58.0625C263.458 56.2708 263.354 54.4167 263.188 52.5C263.062 50.5833 262.854 48.7292 262.562 46.9375C262.271 45.1458 261.896 43.5208 261.438 42.0625C260.979 40.5625 260.438 39.375 259.812 38.5C259.188 37.625 258.458 36.8333 257.625 36.125C256.792 35.4167 255.771 34.7708 254.562 34.1875C253.396 33.6042 252 33.1042 250.375 32.6875C248.75 32.2708 246.854 31.8958 244.688 31.5625C242.938 31.3125 241.604 31.0208 240.688 30.6875C239.771 30.3125 239.312 29.6667 239.312 28.75C239.312 27.9583 239.667 27.4167 240.375 27.125C241.125 26.8333 242.146 26.6875 243.438 26.6875C244.646 26.6875 245.958 26.7708 247.375 26.9375C248.833 27.1042 250.375 27.2917 252 27.5C253.667 27.6667 255.417 27.8333 257.25 28C259.083 28.1667 261 28.25 263 28.25C264.833 28.25 266.667 28.1458 268.5 27.9375C270.333 27.7292 272.083 27.5208 273.75 27.3125C275.458 27.0625 277.042 26.8333 278.5 26.625C280 26.4167 281.333 26.3125 282.5 26.3125C283.958 26.3125 284.938 26.4375 285.438 26.6875C285.938 26.9375 286.188 27.2917 286.188 27.75C286.188 28.25 285.896 28.5833 285.312 28.75C284.729 28.9167 283.958 29.0417 283 29.125C282 29.2083 280.917 29.2917 279.75 29.375C278.625 29.4583 277.5 29.6458 276.375 29.9375C275.25 30.2292 274.188 30.6667 273.188 31.25C272.229 31.8333 271.438 32.6667 270.812 33.75C269.979 35.125 269.375 37 269 39.375C268.667 41.75 268.438 44.375 268.312 47.25C268.188 50.125 268.125 53.125 268.125 56.25C268.125 59.3333 268.042 62.2917 267.875 65.125C267.792 66.7917 267.604 68.9167 267.312 71.5C267.021 74.0417 266.521 76.75 265.812 79.625C265.104 82.4583 264.125 85.3125 262.875 88.1875C261.625 91.0208 259.979 93.5833 257.938 95.875C255.938 98.1667 253.479 100.042 250.562 101.5C247.646 102.917 244.167 103.625 240.125 103.625C236.208 103.625 232.646 103.042 229.438 101.875C226.229 100.708 223.354 99.0625 220.812 96.9375C218.271 94.8125 216.083 92.2917 214.25 89.375C212.417 86.4167 210.917 83.1875 209.75 79.6875C209.042 77.5625 208.458 75.1875 208 72.5625C207.583 69.8958 207.229 67.1042 206.938 64.1875C206.688 61.2708 206.479 58.2708 206.312 55.1875C206.188 52.1042 206.104 49.0417 206.062 46C205.979 43.375 205.854 41 205.688 38.875C205.521 36.75 205.25 34.875 204.875 33.25C204.5 31.625 203.979 30.2708 203.312 29.1875C202.688 28.0625 201.854 27.1875 200.812 26.5625C199.646 25.8542 198.438 25.3542 197.188 25.0625C195.979 24.7708 194.417 24.625 192.5 24.625C190.875 24.625 190.062 24.0417 190.062 22.875C190.062 21.9167 190.75 21.3125 192.125 21.0625C193.958 20.7708 195.792 20.5 197.625 20.25C199.5 20 201.417 19.7292 203.375 19.4375C205.333 19.1458 207.354 18.8333 209.438 18.5C211.521 18.125 213.688 17.6667 215.938 17.125C219.979 16.125 223.521 15.1042 226.562 14.0625C229.604 12.9792 232.208 12 234.375 11.125C236.583 10.25 238.375 9.54167 239.75 9C241.167 8.41667 242.271 8.125 243.062 8.125Z" fill="#FF99CF"/>
</svg>
