<svg width="498" height="217" viewBox="0 0 498 217" fill="none" xmlns="http://www.w3.org/2000/svg">
<path d="M147.359 0.291016C148.398 0.291016 149.029 0.810547 149.252 1.84961C149.549 2.88867 149.697 4.22461 149.697 5.85742C149.697 6.74805 149.623 8.5293 149.475 11.2012C149.326 13.873 149.252 17.1758 149.252 21.1094C149.252 28.0117 149.512 34.0234 150.031 39.1445C150.625 44.1914 151.293 48.6074 152.035 52.3926C152.777 56.1035 153.557 59.2578 154.373 61.8555C155.189 64.4531 155.895 66.6797 156.488 68.5352C156.934 70.0195 157.49 71.8379 158.158 73.9902C158.9 76.0684 159.271 77.8125 159.271 79.2227C159.271 80.4102 158.789 81.0039 157.824 81.0039C157.008 80.9297 156.043 80.4102 154.93 79.4453C153.816 78.4062 152.629 77.1816 151.367 75.7715C150.18 74.3613 148.992 72.877 147.805 71.3184C146.691 69.7598 145.727 68.3867 144.91 67.1992C141.57 62.7461 138.119 58.7754 134.557 55.2871C130.994 51.7988 127.023 48.8301 122.645 46.3809C118.34 43.9316 113.516 42.0762 108.172 40.8145C102.902 39.5527 96.8906 38.9219 90.1367 38.9219C82.418 38.9219 75.1816 40.4434 68.4277 43.4863C61.6738 46.4551 55.7734 51.0195 50.7266 57.1797C45.7539 63.3398 41.7832 71.0957 38.8145 80.4473C35.9199 89.7246 34.4727 100.635 34.4727 113.178C34.4727 124.756 35.4746 135.072 37.4785 144.127C39.5566 153.107 42.3027 160.975 45.7168 167.729C49.1309 174.408 53.0645 180.086 57.5176 184.762C62.0449 189.363 66.7578 193.111 71.6562 196.006C76.6289 198.9 81.6387 200.979 86.6855 202.24C91.7324 203.502 96.5195 204.133 101.047 204.133C108.023 204.133 114.221 203.279 119.639 201.572C125.057 199.865 129.844 197.564 134 194.67C138.156 191.85 141.719 188.584 144.688 184.873C147.656 181.162 150.143 177.303 152.146 173.295C154.15 169.213 155.746 165.168 156.934 161.16C158.121 157.078 158.975 153.256 159.494 149.693C159.791 147.467 160.014 145.24 160.162 143.014C160.385 140.713 160.57 138.635 160.719 136.779C160.941 134.924 161.201 133.439 161.498 132.326C161.869 131.139 162.389 130.545 163.057 130.545C165.209 130.545 166.285 134.33 166.285 141.9C166.285 143.83 166.137 146.354 165.84 149.471C165.617 152.588 165.061 156.076 164.17 159.936C163.354 163.795 162.166 167.877 160.607 172.182C159.049 176.412 156.971 180.643 154.373 184.873C151.85 189.029 148.732 193 145.021 196.785C141.385 200.57 137.006 203.91 131.885 206.805C126.764 209.699 120.826 212 114.072 213.707C107.393 215.414 99.7852 216.268 91.25 216.268C84.0508 216.268 76.7773 215.525 69.4297 214.041C62.1562 212.557 55.1426 210.256 48.3887 207.139C41.709 204.096 35.4375 200.162 29.5742 195.338C23.7852 190.588 18.7383 184.91 14.4336 178.305C10.1289 171.625 6.71484 164.018 4.19141 155.482C1.74219 146.873 0.517578 137.262 0.517578 126.648C0.517578 113.957 1.85352 102.824 4.52539 93.25C7.19727 83.6758 10.7969 75.4004 15.3242 68.4238C19.8516 61.4473 25.0469 55.6953 30.9102 51.168C36.8477 46.5664 43.0449 42.8926 49.502 40.1465C56.0332 37.4004 62.6016 35.4707 69.207 34.3574C75.8867 33.2441 82.1953 32.6875 88.1328 32.6875C92.5859 32.6875 96.6309 32.873 100.268 33.2441C103.979 33.6152 107.355 34.0234 110.398 34.4688C113.516 34.8398 116.336 35.2109 118.859 35.582C121.457 35.9531 123.832 36.1387 125.984 36.1387C129.77 36.1387 132.924 35.3594 135.447 33.8008C137.971 32.168 139.826 29.0879 141.014 24.5605C141.756 21.4434 142.275 18.4375 142.572 15.543C142.943 12.6484 143.277 10.0879 143.574 7.86133C143.945 5.56055 144.391 3.74219 144.91 2.40625C145.43 0.996094 146.246 0.291016 147.359 0.291016ZM250.004 19.2168C263.141 19.2168 275.09 21.2949 285.852 25.4512C296.613 29.6074 305.816 35.4336 313.461 42.9297C321.18 50.3516 327.117 59.2207 331.273 69.5371C335.504 79.7793 337.619 91.0605 337.619 103.381C337.619 110.357 336.877 117.297 335.393 124.199C333.908 131.102 331.682 137.67 328.713 143.904C325.744 150.139 321.959 155.928 317.357 161.271C312.83 166.615 307.486 171.254 301.326 175.188C295.24 179.121 288.301 182.201 280.508 184.428C272.789 186.654 264.217 187.768 254.791 187.768C240.764 187.768 228.443 185.652 217.83 181.422C207.217 177.117 198.348 171.18 191.223 163.609C184.098 155.965 178.717 146.91 175.08 136.445C171.518 125.906 169.736 114.439 169.736 102.045C169.736 89.9473 171.703 78.8516 175.637 68.7578C179.57 58.5898 185.062 49.832 192.113 42.4844C199.238 35.1367 207.699 29.4219 217.496 25.3398C227.367 21.2578 238.203 19.2168 250.004 19.2168ZM245.439 25.0059C238.166 25.0059 231.598 26.6387 225.734 29.9043C219.945 33.1699 214.973 37.8457 210.816 43.9316C206.734 49.9434 203.58 57.2539 201.354 65.8633C199.127 74.3984 198.014 84.0098 198.014 94.6973C198.014 100.857 198.422 107.277 199.238 113.957C200.129 120.637 201.502 127.205 203.357 133.662C205.213 140.119 207.662 146.242 210.705 152.031C213.748 157.82 217.459 162.904 221.838 167.283C226.217 171.662 231.301 175.15 237.09 177.748C242.953 180.346 249.633 181.645 257.129 181.645C266.035 181.645 273.531 179.863 279.617 176.301C285.703 172.664 290.602 167.914 294.312 162.051C298.098 156.188 300.807 149.545 302.439 142.123C304.146 134.627 305 127.02 305 119.301C305 112.844 304.629 106.016 303.887 98.8164C303.219 91.6172 301.994 84.5293 300.213 77.5527C298.506 70.5762 296.168 63.9336 293.199 57.625C290.305 51.2422 286.631 45.6387 282.178 40.8145C277.799 35.9902 272.566 32.168 266.48 29.3477C260.469 26.4531 253.455 25.0059 245.439 25.0059ZM433.361 13.3164C435.291 13.3164 436.256 14.0957 436.256 15.6543C436.256 16.7676 435.736 17.7695 434.697 18.6602C433.732 19.5508 431.988 20.5898 429.465 21.7773C428.129 22.3711 426.645 23.0762 425.012 23.8926C423.453 24.709 421.82 25.6738 420.113 26.7871C418.48 27.8262 416.848 29.0879 415.215 30.5723C413.582 31.9824 412.023 33.6152 410.539 35.4707C408.609 37.8457 406.939 40.8887 405.529 44.5996C404.119 48.3105 402.895 52.541 401.855 57.291C400.891 61.9668 400.148 67.0879 399.629 72.6543C399.184 78.2207 398.961 84.0469 398.961 90.1328C398.961 96.8125 399.184 103.455 399.629 110.061C400.074 116.592 400.816 122.826 401.855 128.764C402.969 134.701 404.416 140.193 406.197 145.24C407.979 150.287 410.168 154.666 412.766 158.377C415.438 162.088 418.592 164.982 422.229 167.061C425.865 169.139 430.096 170.178 434.92 170.178C441.08 170.178 446.35 168.545 450.729 165.279C455.182 162.014 458.818 157.82 461.639 152.699C464.533 147.578 466.648 141.9 467.984 135.666C469.395 129.432 470.1 123.309 470.1 117.297C470.1 115.738 470.062 113.66 469.988 111.062C469.988 108.391 469.914 105.459 469.766 102.268C469.691 99.0762 469.506 95.7734 469.209 92.3594C468.986 88.9453 468.615 85.6426 468.096 82.4512C467.576 79.2598 466.908 76.3652 466.092 73.7676C465.275 71.0957 464.311 68.9805 463.197 67.4219C462.084 65.8633 460.785 64.4531 459.301 63.1914C457.816 61.9297 455.998 60.7793 453.846 59.7402C451.768 58.7012 449.281 57.8105 446.387 57.0684C443.492 56.3262 440.115 55.6582 436.256 55.0645C433.139 54.6191 430.764 54.0996 429.131 53.5059C427.498 52.8379 426.682 51.6875 426.682 50.0547C426.682 48.6445 427.312 47.6797 428.574 47.1602C429.91 46.6406 431.729 46.3809 434.029 46.3809C436.182 46.3809 438.52 46.5293 441.043 46.8262C443.641 47.123 446.387 47.457 449.281 47.8281C452.25 48.125 455.367 48.4219 458.633 48.7188C461.898 49.0156 465.312 49.1641 468.875 49.1641C472.141 49.1641 475.406 48.9785 478.672 48.6074C481.938 48.2363 485.055 47.8652 488.023 47.4941C491.066 47.0488 493.887 46.6406 496.484 46.2695C499.156 45.8984 501.531 45.7129 503.609 45.7129C506.207 45.7129 507.951 45.9355 508.842 46.3809C509.732 46.8262 510.178 47.457 510.178 48.2734C510.178 49.1641 509.658 49.7578 508.619 50.0547C507.58 50.3516 506.207 50.5742 504.5 50.7227C502.719 50.8711 500.789 51.0195 498.711 51.168C496.707 51.3164 494.703 51.6504 492.699 52.1699C490.695 52.6895 488.803 53.4688 487.021 54.5078C485.314 55.5469 483.904 57.0313 482.791 58.9609C481.307 61.4102 480.23 64.75 479.562 68.9805C478.969 73.2109 478.561 77.8867 478.338 83.0078C478.115 88.1289 478.004 93.4727 478.004 99.0391C478.004 104.531 477.855 109.801 477.559 114.848C477.41 117.816 477.076 121.602 476.557 126.203C476.037 130.73 475.146 135.555 473.885 140.676C472.623 145.723 470.879 150.807 468.652 155.928C466.426 160.975 463.494 165.539 459.857 169.621C456.295 173.703 451.916 177.043 446.721 179.641C441.525 182.164 435.328 183.426 428.129 183.426C421.152 183.426 414.807 182.387 409.092 180.309C403.377 178.23 398.256 175.299 393.729 171.514C389.201 167.729 385.305 163.238 382.039 158.043C378.773 152.773 376.102 147.021 374.023 140.787C372.762 137.002 371.723 132.771 370.906 128.096C370.164 123.346 369.533 118.373 369.014 113.178C368.568 107.982 368.197 102.639 367.9 97.1465C367.678 91.6543 367.529 86.1992 367.455 80.7812C367.307 76.1055 367.084 71.875 366.787 68.0898C366.49 64.3047 366.008 60.9648 365.34 58.0703C364.672 55.1758 363.744 52.7637 362.557 50.834C361.443 48.8301 359.959 47.2715 358.104 46.1582C356.025 44.8965 353.873 44.0059 351.646 43.4863C349.494 42.9668 346.711 42.707 343.297 42.707C340.402 42.707 338.955 41.668 338.955 39.5898C338.955 37.8828 340.18 36.8066 342.629 36.3613C345.895 35.8418 349.16 35.3594 352.426 34.9141C355.766 34.4688 359.18 33.9863 362.668 33.4668C366.156 32.9473 369.756 32.3906 373.467 31.7969C377.178 31.1289 381.037 30.3125 385.045 29.3477C392.244 27.5664 398.553 25.748 403.971 23.8926C409.389 21.9629 414.027 20.2188 417.887 18.6602C421.82 17.1016 425.012 15.8398 427.461 14.875C429.984 13.8359 431.951 13.3164 433.361 13.3164Z" fill="#EFEFF0"/>
</svg>
