<svg width="500" height="500" viewBox="0 0 500 500" fill="none" xmlns="http://www.w3.org/2000/svg">
<g clip-path="url(#clip0_46_15)">
<path d="M149.359 114.291C150.398 114.291 151.029 114.811 151.252 115.85C151.549 116.889 151.697 118.225 151.697 119.857C151.697 120.748 151.623 122.529 151.475 125.201C151.326 127.873 151.252 131.176 151.252 135.109C151.252 142.012 151.512 148.023 152.031 153.145C152.625 158.191 153.293 162.607 154.035 166.393C154.777 170.104 155.557 173.258 156.373 175.855C157.189 178.453 157.895 180.68 158.488 182.535C158.934 184.02 159.49 185.838 160.158 187.99C160.9 190.068 161.271 191.812 161.271 193.223C161.271 194.41 160.789 195.004 159.824 195.004C159.008 194.93 158.043 194.41 156.93 193.445C155.816 192.406 154.629 191.182 153.367 189.771C152.18 188.361 150.992 186.877 149.805 185.318C148.691 183.76 147.727 182.387 146.91 181.199C143.57 176.746 140.119 172.775 136.557 169.287C132.994 165.799 129.023 162.83 124.645 160.381C120.34 157.932 115.516 156.076 110.172 154.814C104.902 153.553 98.8906 152.922 92.1367 152.922C84.418 152.922 77.1816 154.443 70.4277 157.486C63.6738 160.455 57.7734 165.02 52.7266 171.18C47.7539 177.34 43.7832 185.096 40.8145 194.447C37.9199 203.725 36.4727 214.635 36.4727 227.178C36.4727 238.756 37.4746 249.072 39.4785 258.127C41.5566 267.107 44.3027 274.975 47.7168 281.729C51.1309 288.408 55.0645 294.086 59.5176 298.762C64.0449 303.363 68.7578 307.111 73.6562 310.006C78.6289 312.9 83.6387 314.979 88.6855 316.24C93.7324 317.502 98.5195 318.133 103.047 318.133C110.023 318.133 116.221 317.279 121.639 315.572C127.057 313.865 131.844 311.564 136 308.67C140.156 305.85 143.719 302.584 146.688 298.873C149.656 295.162 152.143 291.303 154.146 287.295C156.15 283.213 157.746 279.168 158.934 275.16C160.121 271.078 160.975 267.256 161.494 263.693C161.791 261.467 162.014 259.24 162.162 257.014C162.385 254.713 162.57 252.635 162.719 250.779C162.941 248.924 163.201 247.439 163.498 246.326C163.869 245.139 164.389 244.545 165.057 244.545C167.209 244.545 168.285 248.33 168.285 255.9C168.285 257.83 168.137 260.354 167.84 263.471C167.617 266.588 167.061 270.076 166.17 273.936C165.354 277.795 164.166 281.877 162.607 286.182C161.049 290.412 158.971 294.643 156.373 298.873C153.85 303.029 150.732 307 147.021 310.785C143.385 314.57 139.006 317.91 133.885 320.805C128.764 323.699 122.826 326 116.072 327.707C109.393 329.414 101.785 330.268 93.25 330.268C86.0508 330.268 78.7773 329.525 71.4297 328.041C64.1562 326.557 57.1426 324.256 50.3887 321.139C43.709 318.096 37.4375 314.162 31.5742 309.338C25.7852 304.588 20.7383 298.91 16.4336 292.305C12.1289 285.625 8.71484 278.018 6.19141 269.482C3.74219 260.873 2.51758 251.262 2.51758 240.648C2.51758 227.957 3.85352 216.824 6.52539 207.25C9.19727 197.676 12.7969 189.4 17.3242 182.424C21.8516 175.447 27.0469 169.695 32.9102 165.168C38.8477 160.566 45.0449 156.893 51.502 154.146C58.0332 151.4 64.6016 149.471 71.207 148.357C77.8867 147.244 84.1953 146.688 90.1328 146.688C94.5859 146.688 98.6309 146.873 102.268 147.244C105.979 147.615 109.355 148.023 112.398 148.469C115.516 148.84 118.336 149.211 120.859 149.582C123.457 149.953 125.832 150.139 127.984 150.139C131.77 150.139 134.924 149.359 137.447 147.801C139.971 146.168 141.826 143.088 143.014 138.561C143.756 135.443 144.275 132.438 144.572 129.543C144.943 126.648 145.277 124.088 145.574 121.861C145.945 119.561 146.391 117.742 146.91 116.406C147.43 114.996 148.246 114.291 149.359 114.291ZM252.004 133.217C265.141 133.217 277.09 135.295 287.852 139.451C298.613 143.607 307.816 149.434 315.461 156.93C323.18 164.352 329.117 173.221 333.273 183.537C337.504 193.779 339.619 205.061 339.619 217.381C339.619 224.357 338.877 231.297 337.393 238.199C335.908 245.102 333.682 251.67 330.713 257.904C327.744 264.139 323.959 269.928 319.357 275.271C314.83 280.615 309.486 285.254 303.326 289.188C297.24 293.121 290.301 296.201 282.508 298.428C274.789 300.654 266.217 301.768 256.791 301.768C242.764 301.768 230.443 299.652 219.83 295.422C209.217 291.117 200.348 285.18 193.223 277.609C186.098 269.965 180.717 260.91 177.08 250.445C173.518 239.906 171.736 228.439 171.736 216.045C171.736 203.947 173.703 192.852 177.637 182.758C181.57 172.59 187.062 163.832 194.113 156.484C201.238 149.137 209.699 143.422 219.496 139.34C229.367 135.258 240.203 133.217 252.004 133.217ZM247.439 139.006C240.166 139.006 233.598 140.639 227.734 143.904C221.945 147.17 216.973 151.846 212.816 157.932C208.734 163.943 205.58 171.254 203.354 179.863C201.127 188.398 200.014 198.01 200.014 208.697C200.014 214.857 200.422 221.277 201.238 227.957C202.129 234.637 203.502 241.205 205.357 247.662C207.213 254.119 209.662 260.242 212.705 266.031C215.748 271.82 219.459 276.904 223.838 281.283C228.217 285.662 233.301 289.15 239.09 291.748C244.953 294.346 251.633 295.645 259.129 295.645C268.035 295.645 275.531 293.863 281.617 290.301C287.703 286.664 292.602 281.914 296.312 276.051C300.098 270.188 302.807 263.545 304.439 256.123C306.146 248.627 307 241.02 307 233.301C307 226.844 306.629 220.016 305.887 212.816C305.219 205.617 303.994 198.529 302.213 191.553C300.506 184.576 298.168 177.934 295.199 171.625C292.305 165.242 288.631 159.639 284.178 154.814C279.799 149.99 274.566 146.168 268.48 143.348C262.469 140.453 255.455 139.006 247.439 139.006ZM435.361 127.316C437.291 127.316 438.256 128.096 438.256 129.654C438.256 130.768 437.736 131.77 436.697 132.66C435.732 133.551 433.988 134.59 431.465 135.777C430.129 136.371 428.645 137.076 427.012 137.893C425.453 138.709 423.82 139.674 422.113 140.787C420.48 141.826 418.848 143.088 417.215 144.572C415.582 145.982 414.023 147.615 412.539 149.471C410.609 151.846 408.939 154.889 407.529 158.6C406.119 162.311 404.895 166.541 403.855 171.291C402.891 175.967 402.148 181.088 401.629 186.654C401.184 192.221 400.961 198.047 400.961 204.133C400.961 210.812 401.184 217.455 401.629 224.061C402.074 230.592 402.816 236.826 403.855 242.764C404.969 248.701 406.416 254.193 408.197 259.24C409.979 264.287 412.168 268.666 414.766 272.377C417.438 276.088 420.592 278.982 424.229 281.061C427.865 283.139 432.096 284.178 436.92 284.178C443.08 284.178 448.35 282.545 452.729 279.279C457.182 276.014 460.818 271.82 463.639 266.699C466.533 261.578 468.648 255.9 469.984 249.666C471.395 243.432 472.1 237.309 472.1 231.297C472.1 229.738 472.062 227.66 471.988 225.062C471.988 222.391 471.914 219.459 471.766 216.268C471.691 213.076 471.506 209.773 471.209 206.359C470.986 202.945 470.615 199.643 470.096 196.451C469.576 193.26 468.908 190.365 468.092 187.768C467.275 185.096 466.311 182.98 465.197 181.422C464.084 179.863 462.785 178.453 461.301 177.191C459.816 175.93 457.998 174.779 455.846 173.74C453.768 172.701 451.281 171.811 448.387 171.068C445.492 170.326 442.115 169.658 438.256 169.064C435.139 168.619 432.764 168.1 431.131 167.506C429.498 166.838 428.682 165.688 428.682 164.055C428.682 162.645 429.312 161.68 430.574 161.16C431.91 160.641 433.729 160.381 436.029 160.381C438.182 160.381 440.52 160.529 443.043 160.826C445.641 161.123 448.387 161.457 451.281 161.828C454.25 162.125 457.367 162.422 460.633 162.719C463.898 163.016 467.312 163.164 470.875 163.164C474.141 163.164 477.406 162.979 480.672 162.607C483.938 162.236 487.055 161.865 490.023 161.494C493.066 161.049 495.887 160.641 498.484 160.27C501.156 159.898 503.531 159.713 505.609 159.713C508.207 159.713 509.951 159.936 510.842 160.381C511.732 160.826 512.178 161.457 512.178 162.273C512.178 163.164 511.658 163.758 510.619 164.055C509.58 164.352 508.207 164.574 506.5 164.723C504.719 164.871 502.789 165.02 500.711 165.168C498.707 165.316 496.703 165.65 494.699 166.17C492.695 166.689 490.803 167.469 489.021 168.508C487.314 169.547 485.904 171.031 484.791 172.961C483.307 175.41 482.23 178.75 481.562 182.98C480.969 187.211 480.561 191.887 480.338 197.008C480.115 202.129 480.004 207.473 480.004 213.039C480.004 218.531 479.855 223.801 479.559 228.848C479.41 231.816 479.076 235.602 478.557 240.203C478.037 244.73 477.146 249.555 475.885 254.676C474.623 259.723 472.879 264.807 470.652 269.928C468.426 274.975 465.494 279.539 461.857 283.621C458.295 287.703 453.916 291.043 448.721 293.641C443.525 296.164 437.328 297.426 430.129 297.426C423.152 297.426 416.807 296.387 411.092 294.309C405.377 292.23 400.256 289.299 395.729 285.514C391.201 281.729 387.305 277.238 384.039 272.043C380.773 266.773 378.102 261.021 376.023 254.787C374.762 251.002 373.723 246.771 372.906 242.096C372.164 237.346 371.533 232.373 371.014 227.178C370.568 221.982 370.197 216.639 369.9 211.146C369.678 205.654 369.529 200.199 369.455 194.781C369.307 190.105 369.084 185.875 368.787 182.09C368.49 178.305 368.008 174.965 367.34 172.07C366.672 169.176 365.744 166.764 364.557 164.834C363.443 162.83 361.959 161.271 360.104 160.158C358.025 158.896 355.873 158.006 353.646 157.486C351.494 156.967 348.711 156.707 345.297 156.707C342.402 156.707 340.955 155.668 340.955 153.59C340.955 151.883 342.18 150.807 344.629 150.361C347.895 149.842 351.16 149.359 354.426 148.914C357.766 148.469 361.18 147.986 364.668 147.467C368.156 146.947 371.756 146.391 375.467 145.797C379.178 145.129 383.037 144.312 387.045 143.348C394.244 141.566 400.553 139.748 405.971 137.893C411.389 135.963 416.027 134.219 419.887 132.66C423.82 131.102 427.012 129.84 429.461 128.875C431.984 127.836 433.951 127.316 435.361 127.316Z" fill="#FF99CF"/>
</g>
<defs>
<clipPath id="clip0_46_15">
<rect width="500" height="500" fill="white"/>
</clipPath>
</defs>
</svg>
